<svg xmlns="http://www.w3.org/2000/svg" xmlns:xlink="http://www.w3.org/1999/xlink" fill="none" version="1.1" width="10" height="10" viewBox="0 0 10 10"><defs><clipPath id="master_svg0_21_0678"><rect x="0" y="0" width="10" height="10" rx="0"/></clipPath></defs><g clip-path="url(#master_svg0_21_0678)"><g><path d="M4.999996656732559,1.2499996567325593C2.928936656732559,1.2499996567325593,1.2499996567325593,2.928936656732559,1.2499996567325593,4.999996656732559C1.2499996567325593,7.071086656732559,2.928936656732559,8.74999665673256,4.999996656732559,8.74999665673256C7.071086656732559,8.74999665673256,8.74999665673256,7.071086656732559,8.74999665673256,4.999996656732559C8.74999665673256,2.928936656732559,7.071086656732559,1.2499996567325593,4.999996656732559,1.2499996567325593C4.999996656732559,1.2499996567325593,4.999996656732559,1.2499996567325593,4.999996656732559,1.2499996567325593ZM0.4166666567325592,4.999996656732559C0.4166666567325592,2.468696656732559,2.468696656732559,0.4166666567325592,4.999996656732559,0.4166666567325592C7.53128665673256,0.4166666567325592,9.583336656732559,2.468696656732559,9.583336656732559,4.999996656732559C9.583336656732559,7.53128665673256,7.53128665673256,9.583336656732559,4.999996656732559,9.583336656732559C2.468696656732559,9.583336656732559,0.4166666567325592,7.53128665673256,0.4166666567325592,4.999996656732559C0.4166666567325592,4.999996656732559,0.4166666567325592,4.999996656732559,0.4166666567325592,4.999996656732559Z" fill-rule="evenodd" fill="#AAAAAA" fill-opacity="1"/></g></g></svg>