<svg xmlns="http://www.w3.org/2000/svg" xmlns:xlink="http://www.w3.org/1999/xlink" fill="none" version="1.1" width="12" height="12" viewBox="0 0 12 12"><defs><clipPath id="master_svg0_21_0681"><rect x="0" y="0" width="12" height="12" rx="0"/></clipPath></defs><g clip-path="url(#master_svg0_21_0681)"><g><path d="M0.780324,2.0508421853027343C0.951872,1.9669407853027343,1.1562299999999999,1.9880815853027343,1.30697,2.1053241853027345C1.30697,2.1053241853027345,5.80695,5.605326185302735,5.80695,5.605326185302735C5.92875,5.700046185302734,6,5.845706185302735,6,5.999996185302734C6,6.1542961853027345,5.92875,6.299946185302734,5.80695,6.3946761853027345C5.80695,6.3946761853027345,1.30697,9.894696185302735,1.30697,9.894696185302735C1.1562299999999999,10.011896185302735,0.951872,10.033046185302734,0.780324,9.949146185302734C0.608776,9.865246185302734,0.5,9.690946185302735,0.5,9.499996185302734C0.5,9.499996185302734,0.5,2.500001185302734,0.5,2.500001185302734C0.5,2.3090331853027344,0.608776,2.1347441853027345,0.780324,2.0508421853027343C0.780324,2.0508421853027343,0.780324,2.0508421853027343,0.780324,2.0508421853027343ZM6.2803,2.0508421853027343C6.45185,1.9669407853027343,6.65625,1.9880815853027343,6.80695,2.1053241853027345C6.80695,2.1053241853027345,11.3069,5.605326185302735,11.3069,5.605326185302735C11.4288,5.700046185302734,11.5,5.845706185302735,11.5,5.999996185302734C11.5,6.1542961853027345,11.4288,6.299946185302734,11.3069,6.3946761853027345C11.3069,6.3946761853027345,6.80695,9.894696185302735,6.80695,9.894696185302735C6.65625,10.011896185302735,6.45185,10.033046185302734,6.2803,9.949146185302734C6.1088,9.865246185302734,6,9.690946185302735,6,9.499996185302734C6,9.499996185302734,6,5.999996185302734,6,5.999996185302734C6,5.999996185302734,6,2.500001185302734,6,2.500001185302734C6,2.3090331853027344,6.1088,2.1347441853027345,6.2803,2.0508421853027343C6.2803,2.0508421853027343,6.2803,2.0508421853027343,6.2803,2.0508421853027343ZM1.5,3.5223261853027346C1.5,3.5223261853027346,1.5,8.477696185302733,1.5,8.477696185302733C1.5,8.477696185302733,4.68559,5.999996185302734,4.68559,5.999996185302734C4.68559,5.999996185302734,1.5,3.5223261853027346,1.5,3.5223261853027346C1.5,3.5223261853027346,1.5,3.5223261853027346,1.5,3.5223261853027346ZM7,3.5223261853027346C7,3.5223261853027346,7,8.477696185302733,7,8.477696185302733C7,8.477696185302733,10.1856,5.999996185302734,10.1856,5.999996185302734C10.1856,5.999996185302734,7,3.5223261853027346,7,3.5223261853027346C7,3.5223261853027346,7,3.5223261853027346,7,3.5223261853027346Z" fill-rule="evenodd" fill="#AAAAAA" fill-opacity="1"/></g></g></svg>