<svg xmlns="http://www.w3.org/2000/svg" xmlns:xlink="http://www.w3.org/1999/xlink" fill="none" version="1.1" width="28" height="27" viewBox="0 0 28 27"><defs><clipPath id="master_svg0_21_1085"><rect x="0" y="3" width="24" height="24" rx="0"/></clipPath><clipPath id="master_svg1_21_1080"><rect x="16" y="0" width="12" height="12" rx="6"/></clipPath></defs><g><g clip-path="url(#master_svg0_21_1085)"><g><path d="M3.10658,8.55395C3.10658,8.55395,12,14.77934,12,14.77934C12,14.77934,20.8934,8.55395,20.8934,8.55395C20.728,8.22692,20.388,8,20,8C20,8,4,8,4,8C3.61204,8,3.27196,8.22692,3.10658,8.55395C3.10658,8.55395,3.10658,8.55395,3.10658,8.55395ZM21,10.92066C21,10.92066,12.5735,16.819200000000002,12.5735,16.819200000000002C12.2291,17.060299999999998,11.7709,17.060299999999998,11.4265,16.819200000000002C11.4265,16.819200000000002,3,10.92066,3,10.92066C3,10.92066,3,21,3,21C3,21.5477,3.45228,22,4,22C4,22,20,22,20,22C20.5477,22,21,21.5477,21,21C21,21,21,10.92066,21,10.92066C21,10.92066,21,10.92066,21,10.92066ZM1,9C1,7.34772,2.34772,6,4,6C4,6,20,6,20,6C21.6523,6,23,7.34772,23,9C23,9,23,21,23,21C23,22.6523,21.6523,24,20,24C20,24,4,24,4,24C2.34772,24,1,22.6523,1,21C1,21,1,9,1,9C1,9,1,9,1,9Z" fill-rule="evenodd" fill="#767676" fill-opacity="1"/></g></g><g clip-path="url(#master_svg1_21_1080)"><rect x="16" y="0" width="12" height="12" rx="6" fill="#FFFFFF" fill-opacity="1"/><g><path d="M22,1.5C19.51472,1.5,17.5,3.51472,17.5,6C17.5,8.485299999999999,19.51472,10.5,22,10.5C24.4853,10.5,26.5,8.485299999999999,26.5,6C26.5,3.51472,24.4853,1.5,22,1.5C22,1.5,22,1.5,22,1.5ZM16.5,6C16.5,2.96244,18.96244,0.5,22,0.5C25.03755,0.5,27.5,2.96244,27.5,6C27.5,9.03755,25.03755,11.5,22,11.5C18.96244,11.5,16.5,9.03755,16.5,6C16.5,6,16.5,6,16.5,6ZM22,3.5C22.27615,3.5,22.5,3.72386,22.5,4C22.5,4,22.5,6,22.5,6C22.5,6.27615,22.27615,6.5,22,6.5C21.72385,6.5,21.5,6.27615,21.5,6C21.5,6,21.5,4,21.5,4C21.5,3.72386,21.72385,3.5,22,3.5C22,3.5,22,3.5,22,3.5ZM21.5,8C21.5,7.72385,21.72385,7.5,22,7.5C22,7.5,22.005,7.5,22.005,7.5C22.28115,7.5,22.505,7.72385,22.505,8C22.505,8.276150000000001,22.28115,8.5,22.005,8.5C22.005,8.5,22,8.5,22,8.5C21.72385,8.5,21.5,8.276150000000001,21.5,8C21.5,8,21.5,8,21.5,8Z" fill-rule="evenodd" fill="#767676" fill-opacity="1"/></g></g></g></svg>