<svg xmlns="http://www.w3.org/2000/svg" xmlns:xlink="http://www.w3.org/1999/xlink" fill="none" version="1.1" width="17" height="17" viewBox="0 0 17 17"><defs><clipPath id="master_svg0_16_0868"><rect x="0" y="0" width="17" height="17" rx="0"/></clipPath></defs><g clip-path="url(#master_svg0_16_0868)"><g><path d="M7.791666626930237,2.8333366269302367C5.053256626930237,2.8333366269302367,2.8333366269302367,5.053256626930237,2.8333366269302367,7.791666626930237C2.8333366269302367,10.530086626930236,5.053256626930237,12.749966626930236,7.791666626930237,12.749966626930236C9.127516626930237,12.749966626930236,10.340036626930237,12.221766626930236,11.231616626930236,11.362656626930237C11.250246626930236,11.338436626930237,11.270646626930237,11.315056626930236,11.292886626930237,11.292886626930237C11.315056626930236,11.270646626930237,11.338436626930237,11.250246626930236,11.362656626930237,11.231616626930236C12.221766626930236,10.340036626930237,12.749966626930236,9.127516626930237,12.749966626930236,7.791666626930237C12.749966626930236,5.053256626930237,10.530086626930236,2.8333366269302367,7.791666626930237,2.8333366269302367C7.791666626930237,2.8333366269302367,7.791666626930237,2.8333366269302367,7.791666626930237,2.8333366269302367ZM12.772566626930237,11.770866626930237C13.644966626930238,10.680246626930236,14.166666626930237,9.296876626930237,14.166666626930237,7.791666626930237C14.166666626930237,4.270856626930237,11.312506626930237,1.4166666269302368,7.791666626930237,1.4166666269302368C4.270856626930237,1.4166666269302368,1.4166666269302368,4.270856626930237,1.4166666269302368,7.791666626930237C1.4166666269302368,11.312506626930237,4.270856626930237,14.166666626930237,7.791666626930237,14.166666626930237C9.296876626930237,14.166666626930237,10.680246626930236,13.644966626930238,11.770866626930237,12.772566626930237C11.770866626930237,12.772566626930237,14.374166626930236,15.375866626930236,14.374166626930236,15.375866626930236C14.650766626930237,15.652466626930236,15.099266626930238,15.652466626930236,15.375866626930236,15.375866626930236C15.652466626930236,15.099266626930238,15.652466626930236,14.650766626930237,15.375866626930236,14.374166626930236C15.375866626930236,14.374166626930236,12.772566626930237,11.770866626930237,12.772566626930237,11.770866626930237C12.772566626930237,11.770866626930237,12.772566626930237,11.770866626930237,12.772566626930237,11.770866626930237Z" fill-rule="evenodd" fill="#767676" fill-opacity="1"/></g></g></svg>